<svg xmlns="http://www.w3.org/2000/svg" width="64" height="64" viewBox="0 0 64 64">
    <defs>
        <linearGradient id="b" x1=".503" x2=".5" y2="1" gradientUnits="objectBoundingBox">
            <stop offset="0" stop-color="#7024c4"/>
            <stop offset=".415" stop-color="#c21975"/>
            <stop offset=".702" stop-color="#c74c4d"/>
            <stop offset="1" stop-color="#e09b3d"/>
        </linearGradient>
        <filter id="a" x="0" y="0" width="64" height="64" filterUnits="userSpaceOnUse">
            <feOffset dy="4"/>
            <feGaussianBlur stdDeviation="4" result="blur"/>
            <feFlood flood-opacity=".102"/>
            <feComposite operator="in" in2="blur"/>
            <feComposite in="SourceGraphic"/>
        </filter>
    </defs>
    <g style="filter:url(#a)">
        <circle data-name="Oval" cx="20" cy="20" r="20" transform="translate(12 8)" style="fill:url(#b)"/>
    </g>
    <path data-name="Instagram" d="M12.242 17.436H5.194A5.2 5.2 0 0 1 0 12.242V5.194A5.2 5.2 0 0 1 5.194 0h7.048a5.2 5.2 0 0 1 5.194 5.194v7.048a5.2 5.2 0 0 1-5.194 5.194zM5.194 1.754a3.444 3.444 0 0 0-3.44 3.44v7.048a3.444 3.444 0 0 0 3.44 3.44h7.048a3.444 3.444 0 0 0 3.44-3.44V5.194a3.444 3.444 0 0 0-3.44-3.44zm3.524 11.473a4.509 4.509 0 1 1 4.51-4.509 4.515 4.515 0 0 1-4.51 4.509zm0-7.265a2.755 2.755 0 1 0 2.755 2.755 2.759 2.759 0 0 0-2.755-2.754zm4.518-.64a1.081 1.081 0 1 1 1.081-1.08 1.082 1.082 0 0 1-1.081 1.081z" transform="translate(23.282 19.282)" style="fill:#fff"/>
</svg>
