<svg xmlns="http://www.w3.org/2000/svg" width="148" height="42" viewBox="0 0 148 42">
    <defs>
        <style>
            .cls-2{fill-rule:evenodd;fill:#f12129}
        </style>
    </defs>
    <g id="Group_229" data-name="Group 229" transform="translate(-40 -15)">
        <g id="shutterstock_1897145203_Dönüştürülmüş_" data-name="shutterstock_1897145203 [Dönüştürülmüş]" transform="translate(39.908 20.007)">
            <path id="Path_22" data-name="Path 22" d="M903.141 842.062a1.7 1.7 0 0 1-.871-.167 2.015 2.015 0 0 1 .344-.891.856.856 0 0 0 .053-.1l9.127-18.148a19.777 19.777 0 0 1 .666 3.315 19.064 19.064 0 0 1-.161 5.533 15.506 15.506 0 0 1-1.807 5.044 12.658 12.658 0 0 1-3.533 3.942 7.319 7.319 0 0 1-3.5 1.453 2.403 2.403 0 0 1-.318.019z" transform="translate(-894.842 -813.853)" style="fill-rule:evenodd;fill:#fff"/>
            <path id="Path_23" data-name="Path 23" class="cls-2" d="m719.076 587.786-5.641-10.734-11.488-21.861a.187.187 0 0 0-.179-.108h-5.213a.2.2 0 0 0-.179.3l.813 1.555a.553.553 0 0 1 0 .519l-15.24 30.3a.2.2 0 0 0 .178.293c6.885.078 14.107-1.87 18.025-7.984a17.937 17.937 0 0 0 2.631-10.128.569.569 0 0 1 1.073-.276l9.59 18.3.008.016.007.013.005.008a.2.2 0 0 0 .164.087h5.27a.2.2 0 0 0 .179-.3zm-24.24-4.744a8.857 8.857 0 0 1-4.243 1.732 2.812 2.812 0 0 1-2.59-.832 2.424 2.424 0 0 1 .325-2.47l10.1-20.086a.569.569 0 0 1 1.032.035c3.015 7.159 2.02 16.805-4.624 21.622z" transform="translate(-681.84 -555.09)"/>
            <path id="Path_24" data-name="Path 24" class="cls-2" d="M1579.05 587.982a.187.187 0 0 1-.178.108H1556.3a.2.2 0 0 1-.167-.087s0-.005-.005-.008a.185.185 0 0 1-.016-.029.2.2 0 0 1-.016-.078v-28.841a.544.544 0 0 0-.1-.328l-2.333-3.31a.2.2 0 0 1 .167-.32h25.049a.2.2 0 0 1 .167.316l-1.962 2.9a.188.188 0 0 1-.188.088c-5-.506-10.042-.694-15.07-.711a.569.569 0 0 0-.571.569v9.377a.569.569 0 0 0 .952.421c3.929-3.574 10.882-3.435 15.025-.3a.2.2 0 0 1 .027.3l-3.537 3.845a.2.2 0 0 1-.322-.031c-3.291-5.325-12.145-4.208-12.145 2.455v10.612a.569.569 0 0 0 .571.569c5.028-.018 10.066-.205 15.07-.711a.187.187 0 0 1 .188.088l1.962 2.9a.187.187 0 0 1 .012.209z" transform="translate(-1524.5 -555.096)"/>
            <path id="Path_27" data-name="Path 27" d="M233.455 231.67a1.79 1.79 0 0 0-.428.052.926.926 0 0 1-1.306 1.306 1.786 1.786 0 1 0 1.734-1.358z" transform="rotate(-18.01 -549.05 819.82)" style="fill:#a900ff"/>
        </g>
        <text id="Movie_Web_App" data-name="Movie Web App" transform="translate(103 15)" style="font-size:19.5px;font-family:Gilroy-ExtraBold,Gilroy;font-weight:800;fill:#f12129"><tspan x="0" y="19">Movie</tspan><tspan style="font-size:16px"><tspan x="0" y="38">Web App</tspan></tspan></text>
    </g>
</svg>
